# xmcd
#
# Track frame offsets:
#	150
#	12338
#	29089
#	45714
#	59075
#	77894
#	90037
#	106163
#	119491
#	131383
#
# Disc length: 1908 seconds
# Revision: 0
# Processed by: cddbd v1.5.2PL0 Copyright (c) Steve Scherf et al.
# Submitted via: dBpowerAMP V12.0
#
DISCID=7e07720a
DTITLE=Joël Fafard - Three Hens Escape Oblivion
DYEAR=2008
DGENRE=Folk
TTITLE0=The Big Parade/Down the Old Plank Road
TTITLE1=Red Coat Western
TTITLE2=Goodbye
TTITLE3=So Chalant/Cluck Old Hen
TTITLE4=The Gap
TTITLE5=Borrowed New and Blue
TTITLE6=Theo's Song/Angeline the Baker
TTITLE7=Road Hockey
TTITLE8=Live in Quonset
TTITLE9=Not Just Another Dead Rock
EXTD=
EXTT0=
EXTT1=
EXTT2=
EXTT3=
EXTT4=
EXTT5=
EXTT6=
EXTT7=
EXTT8=
EXTT9=
PLAYORDER=
